<svg width="975" height="375" viewBox="-130 -29 325 125" xmlns="http://www.w3.org/2000/svg" style="background-color:white">

  <style>
    .textMicro {
      font: 4px arial;
    }
    .textSmall {
      font: 6px arial;
    }
    .textQuaternion {
      font: 1.5px arial;
    }
  </style>

  <defs>
    <marker 
      id="head"
      orient="auto"
      markerWidth="3"
      markerHeight="4"
      refX="0.1"
      refY="2"
    >
    <path d="M 0 0 V 4 L 2 2 Z" fill="black" />
    </marker>
  </defs>
  
  <!-- Image -->
  <symbol id="image" width="20" height="20" viewBox="-1 -0.4 1.4 1.2">
    <rect x="-0.9" y="0" width="0.9" height="0.7" fill="#01517f" />
    <rect x="0" y="0" width="0.0909925" height="0.7" fill="#02a0fc" transform="skewY(-70)" />
    <rect x="-0.9" y="-0.25" width="0.9" height="0.25" fill="#7ecefc" transform="skewX(-20)" />
  </symbol>

  <!-- Logits -->
  <symbol id="logits" width="20" height="20" viewBox="-1 -0.4 1.4 1.2">
    <rect x="-0.9" y="0" width="0.9" height="0.7" fill="#7f0151" />
    <rect x="0" y="0" width="0.0909925" height="0.7" fill="#fc02a0" transform="skewY(-70)" />
    <rect x="-0.9" y="-0.25" width="0.9" height="0.25" fill="#fc7ece" transform="skewX(-20)" />
  </symbol>

  <!-- Image + Logits -->
  <symbol id="imagepluslogits" width="20" height="20" viewBox="-1 -0.4 1.4 1.2">
    <rect x="-0.9" y="0" width="0.9" height="0.7" fill="#517f01" />
    <rect x="0" y="0" width="0.0909925" height="0.7" fill="#a0fc02" transform="skewY(-70)" />
    <rect x="-0.9" y="-0.25" width="0.9" height="0.25" fill="#cefc7e" transform="skewX(-20)" />
  </symbol>

  <!-- Resample -->
  <symbol id="resample" width="10" height="10" viewBox="-1 -1 2 2">
    <circle cx="0" cy="0" r="0.9" stroke="#0F1035" stroke-width="0.1" fill="none" />

    <g id="dots">
    <circle cx="-0.50" cy="0" r="0.1" fill="#0F1035"/>
    <circle cx="-0.25" cy="0" r="0.1" fill="#0F1035"/>
    <circle cx="-0.00" cy="0" r="0.1" fill="#0F1035"/>
    <circle cx="+0.25" cy="0" r="0.1" fill="#0F1035"/>
    <circle cx="+0.50" cy="0" r="0.1" fill="#0F1035"/>
    </g>

    <use href="#dots" x="0" y="-0.50" />
    <use href="#dots" x="0" y="-0.25" />
    <use href="#dots" x="0" y="+0.25" />
    <use href="#dots" x="0" y="+0.50" />
  </symbol>

  <!-- Sigmoid -->
  <symbol id="sigmoid" width="10" height="10" viewBox="-1 -1 2 2">
    <circle cx="0" cy="0" r="0.9" stroke="#0F1035" stroke-width="0.1" fill="none" />
    <path d="M -0.65 0.65 C 0.3 0.75 -0.3 -0.75 0.65 -0.65" stroke="#0F1035" stroke-width="0.1" fill="none"/>
  </symbol>

  <!-- MLP-->
  <symbol id="mlp" width="10" height="10" viewBox="-1 -1 2 2">
    <circle cx="0" cy="0" r="0.9" stroke="#0F1035" stroke-width="0.1" fill="none" />
    <path d="M -0.5 -0.5 l +0.5  1.2" stroke="#0F1035" stroke-width="0.03" fill="none"/>
    <path d="M -0.5 -0.5 l +0.5  0.5" stroke="#0F1035" stroke-width="0.03" fill="none"/>
    <path d="M -0.5 -0.5 l +0.5 -0.2" stroke="#0F1035" stroke-width="0.03" fill="none"/>

    <path d="M -0.5  0.0 l +0.5 -0.7" stroke="#0F1035" stroke-width="0.03" fill="none"/>
    <path d="M -0.5  0.0 l +0.5  0.0" stroke="#0F1035" stroke-width="0.03" fill="none"/>
    <path d="M -0.5  0.0 l +0.5  0.7" stroke="#0F1035" stroke-width="0.03" fill="none"/>

    <path d="M -0.5 +0.5 l +0.5 -1.2" stroke="#0F1035" stroke-width="0.03" fill="none"/>
    <path d="M -0.5 +0.5 l +0.5 -0.5" stroke="#0F1035" stroke-width="0.03" fill="none"/>
    <path d="M -0.5 +0.5 l +0.5  0.2" stroke="#0F1035" stroke-width="0.03" fill="none"/>

    <path d="M +0.5 -0.5 l -0.5  1.2" stroke="#0F1035" stroke-width="0.03" fill="none"/>
    <path d="M +0.5 -0.5 l -0.5  0.5" stroke="#0F1035" stroke-width="0.03" fill="none"/>
    <path d="M +0.5 -0.5 l -0.5 -0.2" stroke="#0F1035" stroke-width="0.03" fill="none"/>

    <path d="M +0.5  0.0 l -0.5 -0.7" stroke="#0F1035" stroke-width="0.03" fill="none"/>
    <path d="M +0.5  0.0 l -0.5  0.0" stroke="#0F1035" stroke-width="0.03" fill="none"/>
    <path d="M +0.5  0.0 l -0.5  0.7" stroke="#0F1035" stroke-width="0.03" fill="none"/>

    <path d="M +0.5 +0.5 l -0.5 -1.2" stroke="#0F1035" stroke-width="0.03" fill="none"/>
    <path d="M +0.5 +0.5 l -0.5 -0.5" stroke="#0F1035" stroke-width="0.03" fill="none"/>
    <path d="M +0.5 +0.5 l -0.5  0.2" stroke="#0F1035" stroke-width="0.03" fill="none"/>

    <circle cx="-0.5" cy="-0.5" r="0.02" stroke="#0F1035" stroke-width="0.08" fill="white" />
    <circle cx="-0.5" cy=" 0.0" r="0.02" stroke="#0F1035" stroke-width="0.08" fill="white" />
    <circle cx="-0.5" cy="+0.5" r="0.02" stroke="#0F1035" stroke-width="0.08" fill="white" />

    <circle cx="+0.0" cy="-0.7" r="0.02" stroke="#0F1035" stroke-width="0.08" fill="white" />
    <circle cx="+0.0" cy=" 0.0" r="0.02" stroke="#0F1035" stroke-width="0.08" fill="white" />
    <circle cx="+0.0" cy="+0.7" r="0.02" stroke="#0F1035" stroke-width="0.08" fill="white" />

    <circle cx="+0.5" cy="-0.5" r="0.02" stroke="#0F1035" stroke-width="0.08" fill="white" />
    <circle cx="+0.5" cy=" 0.0" r="0.02" stroke="#0F1035" stroke-width="0.08" fill="white" />
    <circle cx="+0.5" cy="+0.5" r="0.02" stroke="#0F1035" stroke-width="0.08" fill="white" />
  </symbol>

  <!-- Quaternion -->
  <symbol id="quaternion" width="10" height="10" viewBox="-1 -1 2 2">
    <circle cx="0" cy="0" r="0.9" stroke="#0F1035" stroke-width="0.1" fill="none" />
    <text x="-0.4" y="0.5" class="textQuaternion">θ</text>
  </symbol>

  <!-- Concatenate -->
  <symbol id="cat" width="10" height="10" viewBox="-1 -1 2 2">
    <circle cx="0" cy="0" r="0.9" stroke="#0F1035" stroke-width="0.1" fill="none" />
    <line x1="-0.9" y1="+0.0" x2="+0.9" y2="+0.0" stroke="#0F1035" stroke-width="0.1" />
    <line x1="+0.0" y1="-0.9" x2="+0.0" y2="+0.9" stroke="#0F1035" stroke-width="0.1" />
  </symbol>

  <symbol id="backbone" width="80" height="40" viewBox="0 -1 3.25 2">
    <!-- Skips -->
    <line x1="0.2" y1="-0.675" x2="3.0" y2="-0.675" stroke="#0F1035" stroke-width="0.03" />
    <line x1="0.3" y1="-0.225" x2="2.8" y2="-0.225" stroke="#0F1035" stroke-width="0.03" />
    <line x1="0.55" y1="+0.225" x2="2.4" y2="+0.225" stroke="#0F1035" stroke-width="0.03" />
    <line x1="0.95" y1="+0.675" x2="2.0" y2="+0.675" stroke="#0F1035" stroke-width="0.03" />

    <!-- Downs -->
    <line x1="0.325" y1="-0.675" x2="0.325" y2="-0.3" stroke="#0F1035" stroke-width="0.03" />
    <line x1="0.60" y1="-0.3" x2="0.6" y2="+0.2" stroke="#0F1035" stroke-width="0.03" />
    <line x1="1.05" y1="+0.2" x2="1.05" y2="+0.6" stroke="#0F1035" stroke-width="0.03" />

    <!-- Ups -->
    <line x1="2.825" y1="-0.675" x2="2.825" y2="-0.3" stroke="#0F1035" stroke-width="0.03" />
    <line x1="2.50" y1="-0.3" x2="2.5" y2="+0.2" stroke="#0F1035" stroke-width="0.03" />
    <line x1="1.95" y1="+0.2" x2="1.95" y2="+0.6" stroke="#0F1035" stroke-width="0.03" />

    <!-- Downsampling -->
    <rect x="0.20" y="-0.80" width="0.05" height="0.25" fill="#365486"/>
    <rect x="0.30" y="-0.80" width="0.05" height="0.25" fill="#365486"/>

    <rect x="0.30" y="-0.35" width="0.05" height="0.25" fill="#7FC7D9"/>
    <rect x="0.40" y="-0.35" width="0.10" height="0.25" fill="#365486"/>
    <rect x="0.55" y="-0.35" width="0.10" height="0.25" fill="#365486"/>

    <rect x="0.55" y="+0.10" width="0.10" height="0.25" fill="#7FC7D9"/>
    <rect x="0.70" y="+0.10" width="0.20" height="0.25" fill="#365486"/>
    <rect x="0.95" y="+0.10" width="0.20" height="0.25" fill="#365486"/>

    <!-- Bottleneck -->
    <rect x="0.95" y="+0.55" width="0.20" height="0.25" fill="#7FC7D9"/>
    <rect x="1.20" y="+0.55" width="0.40" height="0.25" fill="#365486"/>
    <rect x="1.65" y="+0.55" width="0.40" height="0.25" fill="#365486"/>

    <!-- Upsampling -->
    <rect x="1.65" y="+0.10" width="0.20" height="0.25" fill="#DCF2F1"/>
    <rect x="1.85" y="+0.10" width="0.20" height="0.25" fill="#7FC7D9"/>
    <rect x="2.10" y="+0.10" width="0.20" height="0.25" fill="#365486"/>
    <rect x="2.35" y="+0.10" width="0.20" height="0.25" fill="#365486"/>

    <rect x="2.35" y="-0.35" width="0.10" height="0.25" fill="#DCF2F1"/>
    <rect x="2.45" y="-0.35" width="0.10" height="0.25" fill="#7FC7D9"/>
    <rect x="2.60" y="-0.35" width="0.10" height="0.25" fill="#365486"/>
    <rect x="2.75" y="-0.35" width="0.10" height="0.25" fill="#365486"/>

    <rect x="2.75" y="-0.80" width="0.05" height="0.25" fill="#DCF2F1"/>
    <rect x="2.80" y="-0.80" width="0.05" height="0.25" fill="#7FC7D9"/>
    <rect x="2.90" y="-0.80" width="0.05" height="0.25" fill="#365486"/>
    <rect x="3.00" y="-0.80" width="0.05" height="0.25" fill="#365486"/>

    <!-- Outline -->
    <rect x="0.05" y="-0.95" width="3.15" height="1.9" stroke="#0F1035" stroke-width="0.03" fill="none" rx="0.05"/>
  </symbol>

  <!-- Connections -->

  <!-- Input => Coarse Input Resampler -->
  <path stroke-width="0.5" fill="none" stroke="#0F1035" d="M -105 0 l 5.5 0"/>
  <!-- Coarse Input Resampler => Coarse Image -->
  <path stroke-width="0.5" fill="none" stroke="#0F1035" d="M -90.5 0 l 6 0"/>
  <!-- Coarse Image => Coarse Backbone -->
  <path stroke-width="0.5" fill="none" stroke="#0F1035" d="M -70.5 0 l 5 0"/>
  <!-- Coarse Backbone => Coarse Segmentation -->
  <path stroke-width="0.5" fill="none" stroke="#0F1035" d="M -2.5 0 l 5 0"/>
  <!-- Coarse Backbone => Quaternion -->
  <path stroke-width="0.5" fill="none" stroke="#0F1035" d="M -25.75 13.5 l 5.75 0 l 0 15"/>
  <!-- MLP => Quaternion -->
  <path stroke-width="0.5" fill="none" stroke="#0F1035" d="M -15.5 33.0 l 6 0"/>
  <!-- Quaternion => Resamplers -->
  <line x1="0" y1="33.0" x2="+25" y2="33.0" stroke="#0F1035" stroke-width="0.5" stroke-dasharray="1"/>
  <line x1="+25.0" y1="33.0" x2="+25.0" y2="45.5" stroke="#0F1035" stroke-width="0.5" stroke-dasharray="1"/>
  <line x1="+25.0" y1="33.0" x2="+25.0" y2="4.5" stroke="#0F1035" stroke-width="0.5" stroke-dasharray="1"/>
  <!-- Coarse Segmentation => Seg Fine Resampler -->
  <line x1="16.0" y1="0.0" x2="20.25" y2="0.0" stroke="#0F1035" stroke-width="0.5" visibility="visible" />
  <!-- Coarse Segmentation => Coarse Sigmoid -->
  <path stroke-width="0.5" fill="none" stroke="#0F1035" d="M 9.0 7.0 l 0 4.5"/>
  <!-- Input => Fine Resampler -->
  <path stroke-width="0.5" fill="none" stroke="#0F1035" d="M -112 0 l 0 50 l 132.5 0 "/>
  <!-- Seg Fine Resampler => Resampled Seg -->
  <path stroke-width="0.5" fill="none" stroke="#0F1035" d="M 29.75 0 l 4 0"/>
  <!-- Input Fine Resampler => Input Fine Resampled -->
  <path stroke-width="0.5" fill="none" stroke="#0F1035" d="M 29.5 50 l 5 0"/>
  <!-- Input Fine Resampled => Cat -->
  <path stroke-width="0.5" fill="none" stroke="#0F1035" d="M 51 50 l 8 0 l 0 -50"/>
  <!-- Resampled Seg => Fine Input -->
  <path stroke-width="0.5" fill="none" stroke="#0F1035" d="M 50 0 l 21 0"/>
  <!-- Fine Input => Fine Backbone -->
  <line x1="86.0" y1="0" x2="93.5" y2="0" stroke="#0F1035" stroke-width="0.5" />
  <!-- Fine Backbone => Fine Seg -->
  <line x1="156.5" y1="0" x2="166.0" y2="0" stroke="#0F1035" stroke-width="0.5" />
  <!-- Fine Segmentation => Fine Sigmoid -->
  <line x1="172.0" y1="5.0" x2="172" y2="11.5" stroke="#0F1035" stroke-width="0.5" visibility="visible" />


  <!-- Original Image Text -->
  <g transform="translate(-126 -20)">
  <text x="0" y="0" class="textMicro">
    <tspan x="0" dy="1.2em">1x240x240x240</tspan>
    <tspan x="8" dy="1.2em">0.8mm</tspan>
  </text>
  </g>

  <!-- Original Image -->
  <use href="#image" x="-120" y="-10" />

  <!-- Resample Image Coarse -->
  <use href="#resample" x="-100" y="-5" />

  <!-- Coarse Image Text -->
  <g transform="translate(-88 -20)">
  <text x="0" y="0" class="textMicro">
    <tspan x="0" dy="1.2em">1x64x64x64</tspan>
    <tspan x="4" dy="1.2em">3.0mm</tspan>
  </text>
  </g>

  <!-- Coarse Image -->
  <use href="#image" x="-86" y="-10" />

  <!-- Coarse Backbone Text -->
  <g transform="translate(-61.0 -22)">
  <text x="0" y="0" class="textMicro">
    Coarse Segmentation Module
  </text>
  </g>

  <!-- Coarse Backbone -->
  <use href="#backbone" x="-74" y="-20" />

  <!-- Coarse Segmentation Text -->
  <g transform="translate(-1.0 -20)">
  <text x="0" y="0" class="textMicro">
    <tspan x="0" dy="1.2em">4x64x64x64</tspan>
    <tspan x="4" dy="1.2em">3.0mm</tspan>
  </text>
  </g>

  <!-- Coarse Segmentation -->
  <use href="#logits" x="1" y="-10" />

  <!-- MLP -->
  <use href="#mlp" x="-25" y="28" />

  <!-- Quaternion -->
  <use href="#quaternion" x="-10" y="28" />

  <!-- Quaternion Loss Text -->
  <g transform="translate(-7 47)">
  <text x="0" y="0" class="textMicro">Lq</text>
  </g>

  <!-- Quaternion Loss Arrow -->
  <path
    id='arrow-line'
    marker-end='url(#head)'
    stroke-width='0.5'
    fill='none' stroke='black'  
    d='M-5,37.5, -5 42'
  />

  <!-- Coarse Sigmoid --> 
  <use href="#sigmoid" x="4" y="11" />

  <!-- Coarse Segmentation Loss Arrow -->
  <path
    id='arrow-line'
    marker-end='url(#head)'
    stroke-width='0.5'
    fill='none' stroke='black'  
    d='M9,20.5,9 25'
  />

  <!-- Coarse Segmentation Loss Text -->
  <g transform="translate(7 30)">
  <text x="0" y="0" class="textMicro">Lc</text>
  </g>

  <!-- Resample Features -->
  <use href="#resample" x="20" y="-5" transform="rotate(36, 25, 0)" />

  <!-- Resample Image Fine -->
  <use href="#resample" x="20" y="+45" transform="rotate(36, 25, 50)"/>

  <!-- Coarse Segmentation Resampled Text -->
  <g transform="translate(28.0 -20)">
  <text x="0" y="0" class="textMicro">
    <tspan x="0" dy="1.2em">4x128x128x92</tspan>
    <tspan x="7" dy="1.2em">0.8mm</tspan>
  </text>
  </g>

  <!-- Coarse Segmentation Resampled -->
  <use href="#logits" x="33" y="-9" transform="rotate(36, 43, 1)" />

  <!-- Input Image Resampled Text -->
  <g transform="translate(29.0 30)">
  <text x="0" y="0" class="textMicro">
    <tspan x="0" dy="1.2em">1x128x128x92</tspan>
    <tspan x="7" dy="1.2em">0.8mm</tspan>
  </text>
  </g>

  <!-- Input Image Resampled -->
  <use href="#image" x="34" y="41" transform="rotate(36, 44, 51)" />

  <!-- Concatenate -->
  <use href="#cat" x="54" y="-5" visibility="visible" />

  <!-- Fine Input Concatenated Text -->
  <g transform="translate(65.0 -20)">
  <text x="0" y="0" class="textMicro">
    <tspan x="0" dy="1.2em">5x128x128x92</tspan>
    <tspan x="6" dy="1.2em">0.8mm</tspan>
  </text>
  </g>

  <!-- Fine Input Concatenated -->
  <use href="#imagepluslogits" x="70" y="-9" transform="rotate(36, 80, 1)" />

  <!-- Fine Backbone -->
  <g transform="translate(101.0 -22)">
  <text x="0" y="0" class="textMicro">
    Fine Segmentation Module
  </text>
  </g>
  <use href="#backbone" x="85" y="-20" />

  <!-- Fine Segmentation -->
  <g transform="translate(159.0 -20)">
  <text x="0" y="0" class="textMicro">
    <tspan x="0" dy="1.2em">4x128x128x92</tspan>
    <tspan x="6" dy="1.2em">0.8mm</tspan>
  </text>
  </g>
  <use href="#logits" x="164" y="-9" transform="rotate(36, 174, 1)" />

  <!-- Fine Sigmoid --> 
  <use href="#sigmoid" x="167" y="11" />

  <!-- Fine Segmentation Loss Arrow -->
  <path
    id='arrow-line'
    marker-end='url(#head)'
    stroke-width='0.5'
    fill='none' stroke='black'  
    d='M172,20.5, 172 25'
  />

  <!-- Fine Segmentation Loss Text -->
  <g transform="translate(170 30)">
  <text x="0" y="0" class="textMicro">Lf</text>
  </g>


  <!-- Legend -->
  <rect x="73" y="32" width="118" height="60" stroke="#0F1035" stroke-width="0.5" fill="none" rx="1.0" />

  <use href="#image" x="75" y="30" width="15" />
  <text x="90" y="42" class="textSmall">Image</text>

  <use href="#logits" x="75" y="45" width="15" />
  <text x="90" y="57" class="textSmall">Logits</text>

  <use href="#imagepluslogits" x="75" y="60" width="15" />
  <text x="90" y="72" class="textSmall">Image+Logits</text>

  <use href="#cat" x="77" y="80" width="10" />
  <text x="90" y="87" class="textSmall">Concatenate</text>

  <use href="#resample" x="135" y="35" width="10" />
  <text x="148" y="42" class="textSmall">Resample</text>

  <use href="#mlp" x="135" y="50" width="10" />
  <text x="148" y="57" class="textSmall">Transformation</text>

  <use href="#quaternion" x="135" y="65" width="10" />
  <text x="148" y="72" class="textSmall">Quaternion</text>

  <use href="#sigmoid" x="135" y="80" width="10" />
  <text x="148" y="87" class="textSmall">Softmax</text>
</svg>